STARTFONT 2.1
COMMENT $XConsortium: luBS24.bdf,v 1.7 94/04/02 15:59:41 gildea Exp $
COMMENT  (c) Copyright Bigelow & Holmes 1986, 1985. Lucida is a registered
COMMENT  trademark of Bigelow & Holmes. See LEGAL NOTICE file for terms 
COMMENT  of the license. 
COMMENT  
COMMENT  Translation to ISO8859-2 by Cub Soft;  Petr.Kolar@vslib.cz
COMMENT  
FONT -B&H-Lucida-Bold-R-Normal-Sans-24-240-75-75-P-152-ISO8859-2
SIZE 24 72 72
FONTBOUNDINGBOX 49 27 -18 -5
STARTPROPERTIES 20
COMMENT Begin LogicalFontDescription
FONTNAME_REGISTRY ""
FOUNDRY "B&H"
FAMILY_NAME "Lucida"
WEIGHT_NAME "Bold"
SLANT "R"
SETWIDTH_NAME "Normal"
ADD_STYLE_NAME "Sans"
PIXEL_SIZE 24
POINT_SIZE 240
RESOLUTION_X 75
RESOLUTION_Y 75
SPACING "P"
AVERAGE_WIDTH 152
CHARSET_REGISTRY "ISO8859"
CHARSET_ENCODING "2"
COMMENT END LogicalFontDescription
FONT_ASCENT 22
FONT_DESCENT 5
DEFAULT_CHAR 0
COPYRIGHT "Copyright Bigelow & Holmes 1986, 1985., Copyright 1996 Cub Soft"
FACE_NAME "Lucida Sans Bold"
ENDPROPERTIES
CHARS 191
STARTCHAR space
ENCODING 32
SWIDTH 343 0
DWIDTH 8 0
BBX 1 1 0 0
BITMAP
00
ENDCHAR
STARTCHAR exclam
ENCODING 33
SWIDTH 265 0
DWIDTH 8 0
BBX 5 17 2 0
BITMAP
f8
f8
f8
f8
f8
f8
f8
f8
70
70
70
70
00
00
f8
f8
f8
ENDCHAR
STARTCHAR quotedbl
ENCODING 34
SWIDTH 530 0
DWIDTH 13 0
BBX 11 8 1 10
BITMAP
fbe0
fbe0
f3e0
f3e0
71c0
71c0
71c0
71c0
ENDCHAR
STARTCHAR numbersign
ENCODING 35
SWIDTH 687 0
DWIDTH 16 0
BBX 15 17 1 0
BITMAP
0318
0318
0638
0630
7ffe
7ffe
0c60
0c60
0c60
1c60
fffc
fff8
18c0
18c0
31c0
3180
3180
ENDCHAR
STARTCHAR dollar
ENCODING 36
SWIDTH 687 0
DWIDTH 16 0
BBX 13 23 2 -3
BITMAP
0700
0700
0700
1ff0
3ff0
7ff0
7b00
7b00
7f00
7f00
3f80
0fc0
07e0
07f0
06f8
0678
8678
fff0
fff0
7fc0
0700
0700
0700
ENDCHAR
STARTCHAR percent
ENCODING 37
SWIDTH 898 0
DWIDTH 22 0
BBX 21 17 0 0
BITMAP
3e01e0
7f03c0
ff8380
e38700
e38f00
ff9e00
7f3c00
3e7800
0073e0
00f7f0
01eff8
03ce38
078e38
070e38
0f0ff8
1e07f0
3c03e0
ENDCHAR
STARTCHAR ampersand
ENCODING 38
SWIDTH 792 0
DWIDTH 19 0
BBX 18 17 0 0
BITMAP
07f000
0ff800
1ffc00
1f3c00
1f3c00
0ff800
0ff000
1fe3c0
3ff3c0
7bf3c0
f9fb80
f8ff80
f8ff00
fc7e00
7ffe00
3fff00
0fcf80
ENDCHAR
STARTCHAR apostrophe
ENCODING 39
SWIDTH 265 0
DWIDTH 6 0
BBX 5 8 1 10
BITMAP
f8
f8
f8
f8
f8
38
f0
c0
ENDCHAR
STARTCHAR parenleft
ENCODING 40
SWIDTH 386 0
DWIDTH 9 0
BBX 7 23 1 -5
BITMAP
02
06
0e
1e
3c
7c
7c
78
f8
f8
f8
f8
f8
f8
f8
78
7c
7c
3c
1e
0e
06
02
ENDCHAR
STARTCHAR parenright
ENCODING 41
SWIDTH 386 0
DWIDTH 9 0
BBX 7 23 1 -5
BITMAP
80
c0
e0
f0
78
7c
7c
3c
3e
3e
3e
3e
3e
3e
3e
3c
7c
7c
78
f0
e0
c0
80
ENDCHAR
STARTCHAR asterisk
ENCODING 42
SWIDTH 464 0
DWIDTH 11 0
BBX 9 9 1 8
BITMAP
1c00
5d00
4900
f780
e380
1400
7700
7700
2400
ENDCHAR
STARTCHAR plus
ENCODING 43
SWIDTH 687 0
DWIDTH 16 0
BBX 15 14 1 0
BITMAP
0380
0380
0380
0380
0380
fffe
fffe
fffe
0380
0380
0380
0380
0380
0380
ENDCHAR
STARTCHAR comma
ENCODING 44
SWIDTH 343 0
DWIDTH 8 0
BBX 5 9 2 -4
BITMAP
f8
f8
f8
f8
f8
38
70
f0
c0
ENDCHAR
STARTCHAR minus
ENCODING 45
SWIDTH 687 0
DWIDTH 16 0
BBX 14 3 1 6
BITMAP
fffc
fffc
fffc
ENDCHAR
STARTCHAR period
ENCODING 46
SWIDTH 343 0
DWIDTH 8 0
BBX 5 5 2 0
BITMAP
f8
f8
f8
f8
f8
ENDCHAR
STARTCHAR slash
ENCODING 47
SWIDTH 596 0
DWIDTH 14 0
BBX 14 22 0 -4
BITMAP
003c
0038
0078
0070
00f0
00e0
01e0
01c0
01c0
0380
0380
0700
0700
0e00
0e00
1c00
1c00
3800
3800
7800
7000
f000
ENDCHAR
STARTCHAR zero
ENCODING 48
SWIDTH 687 0
DWIDTH 16 0
BBX 15 17 1 0
BITMAP
07c0
1ff0
3ff8
7c7c
783c
f83e
f83e
f83e
f83e
f83e
f83e
f83e
783c
7c7c
3ff8
1ff0
07c0
ENDCHAR
STARTCHAR one
ENCODING 49
SWIDTH 687 0
DWIDTH 16 0
BBX 7 17 4 0
BITMAP
fe
fe
fe
3e
3e
3e
3e
3e
3e
3e
3e
3e
3e
3e
3e
3e
3e
ENDCHAR
STARTCHAR two
ENCODING 50
SWIDTH 687 0
DWIDTH 16 0
BBX 13 17 1 0
BITMAP
3fc0
ffe0
fff0
c1f8
00f8
00f8
00f8
01f0
03e0
07c0
0f80
1f00
7c00
f800
fff8
fff8
fff8
ENDCHAR
STARTCHAR three
ENCODING 51
SWIDTH 687 0
DWIDTH 16 0
BBX 13 17 2 0
BITMAP
3f80
ffe0
fff0
83f0
01f0
01f0
03e0
3fc0
3fc0
3fe0
01f0
00f8
00f8
c1f8
fff0
fff0
7f80
ENDCHAR
STARTCHAR four
ENCODING 52
SWIDTH 687 0
DWIDTH 16 0
BBX 15 17 1 0
BITMAP
00f8
01f8
03f8
07f8
0ff8
1ef8
3cf8
7cf8
78f8
f0f8
fffe
fffe
fffe
00f8
00f8
00f8
00f8
ENDCHAR
STARTCHAR five
ENCODING 53
SWIDTH 687 0
DWIDTH 16 0
BBX 12 17 3 0
BITMAP
fff0
fff0
fff0
e000
e000
e000
fe00
ffc0
ffe0
07e0
01f0
01f0
01f0
83f0
ffe0
ffc0
7f00
ENDCHAR
STARTCHAR six
ENCODING 54
SWIDTH 687 0
DWIDTH 16 0
BBX 14 17 1 0
BITMAP
07f0
1ff8
3ff8
7e08
7c00
f800
fbe0
fff8
fff8
fcfc
f87c
f87c
787c
7cfc
3ff8
1ff0
0fc0
ENDCHAR
STARTCHAR seven
ENCODING 55
SWIDTH 687 0
DWIDTH 16 0
BBX 13 17 3 0
BITMAP
fff8
fff8
fff8
0078
00f0
01e0
03e0
07c0
0780
0f00
1f00
1e00
3e00
3c00
7c00
7c00
7c00
ENDCHAR
STARTCHAR eight
ENCODING 56
SWIDTH 687 0
DWIDTH 16 0
BBX 14 17 1 0
BITMAP
0fc0
3ff0
7ff8
78f8
7878
7c78
3ff0
1fe0
1ff0
3df8
787c
f83c
f83c
fc7c
fff8
7ff0
1fc0
ENDCHAR
STARTCHAR nine
ENCODING 57
SWIDTH 687 0
DWIDTH 16 0
BBX 14 17 1 0
BITMAP
0fc0
3fe0
7ff0
fcf8
f878
f87c
f87c
fcfc
7ffc
7ffc
1e7c
007c
00f8
41f8
7ff0
7fe0
3f80
ENDCHAR
STARTCHAR colon
ENCODING 58
SWIDTH 343 0
DWIDTH 8 0
BBX 5 13 2 0
BITMAP
f8
f8
f8
f8
f8
00
00
00
f8
f8
f8
f8
f8
ENDCHAR
STARTCHAR semicolon
ENCODING 59
SWIDTH 343 0
DWIDTH 8 0
BBX 5 17 2 -4
BITMAP
f8
f8
f8
f8
f8
00
00
00
f8
f8
f8
f8
f8
38
70
f0
c0
ENDCHAR
STARTCHAR less
ENCODING 60
SWIDTH 687 0
DWIDTH 16 0
BBX 14 14 1 0
BITMAP
0004
001c
007c
01f8
07e0
1f80
fe00
7e00
1f80
07e0
01f8
007c
001c
0004
ENDCHAR
STARTCHAR equal
ENCODING 61
SWIDTH 687 0
DWIDTH 16 0
BBX 14 9 1 2
BITMAP
fffc
fffc
fffc
0000
0000
0000
fffc
fffc
fffc
ENDCHAR
STARTCHAR greater
ENCODING 62
SWIDTH 687 0
DWIDTH 16 0
BBX 14 14 1 0
BITMAP
8000
e000
f800
7e00
1f80
07e0
01f8
01fc
07e0
1f80
7e00
f800
e000
8000
ENDCHAR
STARTCHAR question
ENCODING 63
SWIDTH 572 0
DWIDTH 14 0
BBX 12 17 1 0
BITMAP
7f80
ffe0
fff0
83f0
01f0
01f0
01e0
03c0
0780
0f00
1f00
1f00
0000
0000
1f00
1f00
1f00
ENDCHAR
STARTCHAR at
ENCODING 64
SWIDTH 833 0
DWIDTH 20 0
BBX 19 17 2 0
BITMAP
00fc00
03ff00
0f03c0
1c01c0
38fce0
71fc60
638c60
e70860
ce3860
ce78c0
cfd9c0
cf9f80
e71e00
600000
382000
1ff000
07c000
ENDCHAR
STARTCHAR A
ENCODING 65
SWIDTH 773 0
DWIDTH 19 0
BBX 18 17 0 0
BITMAP
03f000
03f000
03f800
07f800
07f800
07fc00
0e7c00
0e7e00
1e3e00
1c3e00
1fff00
3fff00
3fff80
780f80
700f80
7007c0
e007c0
ENDCHAR
STARTCHAR B
ENCODING 66
SWIDTH 669 0
DWIDTH 16 0
BBX 14 17 2 0
BITMAP
ffe0
fff0
fff8
f8f8
f8f8
f8f8
f9f0
ffc0
ffc0
fff0
f8f8
f87c
f87c
f87c
fffc
fff8
ffe0
ENDCHAR
STARTCHAR C
ENCODING 67
SWIDTH 726 0
DWIDTH 17 0
BBX 16 17 1 0
BITMAP
03fe
0fff
3fff
7f03
7c00
fc00
f800
f800
f800
f800
f800
fc00
7e00
7f01
3fff
0fff
03fc
ENDCHAR
STARTCHAR D
ENCODING 68
SWIDTH 819 0
DWIDTH 20 0
BBX 17 17 2 0
BITMAP
fff000
fffc00
fffe00
f87f00
f81f00
f81f80
f80f80
f80f80
f80f80
f80f80
f80f80
f80f80
f81f00
f83f00
fffe00
fffc00
fff000
ENDCHAR
STARTCHAR E
ENCODING 69
SWIDTH 645 0
DWIDTH 15 0
BBX 13 17 2 0
BITMAP
fff0
fff0
fff0
f800
f800
f800
f800
ffe0
ffe0
ffe0
f800
f800
f800
f800
fff8
fff8
fff8
ENDCHAR
STARTCHAR F
ENCODING 70
SWIDTH 602 0
DWIDTH 14 0
BBX 12 17 2 0
BITMAP
fff0
fff0
fff0
f800
f800
f800
f800
ffe0
ffe0
ffe0
f800
f800
f800
f800
f800
f800
f800
ENDCHAR
STARTCHAR G
ENCODING 71
SWIDTH 759 0
DWIDTH 18 0
BBX 16 17 1 0
BITMAP
03ff
0fff
3fff
3f03
7c00
fc00
f800
f800
f81f
f81f
f81f
fc1f
7c1f
7f1f
3fff
0fff
03fe
ENDCHAR
STARTCHAR H
ENCODING 72
SWIDTH 813 0
DWIDTH 20 0
BBX 15 17 2 0
BITMAP
f83e
f83e
f83e
f83e
f83e
f83e
f83e
fffe
fffe
fffe
f83e
f83e
f83e
f83e
f83e
f83e
f83e
ENDCHAR
STARTCHAR I
ENCODING 73
SWIDTH 361 0
DWIDTH 9 0
BBX 5 17 2 0
BITMAP
f8
f8
f8
f8
f8
f8
f8
f8
f8
f8
f8
f8
f8
f8
f8
f8
f8
ENDCHAR
STARTCHAR J
ENCODING 74
SWIDTH 501 0
DWIDTH 12 0
BBX 10 21 0 -4
BITMAP
07c0
07c0
07c0
07c0
07c0
07c0
07c0
07c0
07c0
07c0
07c0
07c0
07c0
07c0
07c0
07c0
07c0
87c0
ff80
ff80
7e00
ENDCHAR
STARTCHAR K
ENCODING 75
SWIDTH 753 0
DWIDTH 18 0
BBX 16 17 2 0
BITMAP
f81e
f83c
f878
f8f0
f8e0
f9e0
fbc0
ffc0
ffc0
ffe0
fbf0
fbf0
f9f8
f8fc
f8fe
f87e
f83f
ENDCHAR
STARTCHAR L
ENCODING 76
SWIDTH 620 0
DWIDTH 15 0
BBX 13 17 2 0
BITMAP
f800
f800
f800
f800
f800
f800
f800
f800
f800
f800
f800
f800
f800
f800
fff8
fff8
fff8
ENDCHAR
STARTCHAR M
ENCODING 77
SWIDTH 940 0
DWIDTH 23 0
BBX 18 17 2 0
BITMAP
fc0fc0
fc0fc0
fc1fc0
fe1fc0
fe1fc0
fe3fc0
ef3fc0
ef3fc0
ef7fc0
e7f7c0
e7f7c0
e7f7c0
e7e7c0
e3e7c0
e3e7c0
e3c7c0
e007c0
ENDCHAR
STARTCHAR N
ENCODING 78
SWIDTH 783 0
DWIDTH 19 0
BBX 15 17 2 0
BITMAP
f00e
f80e
fc0e
fe0e
ff0e
ff0e
ff8e
efce
efee
e7ee
e3fe
e1fe
e1fe
e0fe
e07e
e03e
e01e
ENDCHAR
STARTCHAR O
ENCODING 79
SWIDTH 855 0
DWIDTH 21 0
BBX 19 17 1 0
BITMAP
03f800
0ffe00
3fff80
7e0fc0
7c07c0
fc07e0
f803e0
f803e0
f803e0
f803e0
f803e0
fc07e0
7c07c0
7e0fc0
3fff80
0ffe00
03f800
ENDCHAR
STARTCHAR P
ENCODING 80
SWIDTH 657 0
DWIDTH 16 0
BBX 14 17 2 0
BITMAP
fff0
fff8
fffc
f8fc
f87c
f87c
f87c
f8f8
fff8
fff0
ffc0
f800
f800
f800
f800
f800
f800
ENDCHAR
STARTCHAR Q
ENCODING 81
SWIDTH 855 0
DWIDTH 21 0
BBX 22 21 1 -4
BITMAP
03f800
0ffe00
3fff80
7e0fc0
7c07c0
fc07e0
f803e0
f803e0
f803e0
f803e0
f803e0
fc07e0
7c07c0
7e0f80
3fff80
0ffe00
03fe00
001ffc
0007f8
0003f0
000060
ENDCHAR
STARTCHAR R
ENCODING 82
SWIDTH 734 0
DWIDTH 18 0
BBX 16 17 2 0
BITMAP
ffc0
fff0
fff8
f8f8
f8f8
f8f8
f9f8
fff0
ffe0
ffe0
fbf0
f9f0
f9f8
f8f8
f8fc
f87e
f87f
ENDCHAR
STARTCHAR S
ENCODING 83
SWIDTH 594 0
DWIDTH 14 0
BBX 13 17 1 0
BITMAP
1ff0
7ff0
7ff0
f830
f800
fe00
ff00
7fc0
3ff0
1ff0
07f8
01f8
00f8
c1f8
fff0
ffe0
ff80
ENDCHAR
STARTCHAR T
ENCODING 84
SWIDTH 735 0
DWIDTH 18 0
BBX 17 17 0 0
BITMAP
ffff80
ffff80
ffff80
03e000
03e000
03e000
03e000
03e000
03e000
03e000
03e000
03e000
03e000
03e000
03e000
03e000
03e000
ENDCHAR
STARTCHAR U
ENCODING 85
SWIDTH 783 0
DWIDTH 19 0
BBX 15 17 2 0
BITMAP
f83e
f83e
f83e
f83e
f83e
f83e
f83e
f83e
f83e
f83e
f83e
f83e
f83e
7c7c
7ffc
3ff8
0fe0
ENDCHAR
STARTCHAR V
ENCODING 86
SWIDTH 735 0
DWIDTH 18 0
BBX 17 17 0 0
BITMAP
f80380
fc0780
7c0700
7c0700
7e0e00
3e0e00
3f0e00
1f1c00
1f1c00
1fbc00
0fb800
0fb800
0ff800
07f000
07f000
03e000
03e000
ENDCHAR
STARTCHAR W
ENCODING 87
SWIDTH 940 0
DWIDTH 23 0
BBX 22 17 0 0
BITMAP
f83c1c
f87c1c
f87c38
fc7c38
7c7e38
7cfe38
7cfe70
7efe70
3efe70
3fef70
3fcfe0
3fcfe0
1fcfe0
1fcfe0
1f87c0
1f87c0
0f87c0
ENDCHAR
STARTCHAR X
ENCODING 88
SWIDTH 699 0
DWIDTH 17 0
BBX 16 17 1 0
BITMAP
fc0f
7e1e
3e3c
3f38
1ff8
1ff0
0fe0
07e0
07e0
07f0
0ff0
0ff8
1ef8
3cfc
387e
787e
f03f
ENDCHAR
STARTCHAR Y
ENCODING 89
SWIDTH 738 0
DWIDTH 18 0
BBX 17 17 0 0
BITMAP
fc0780
7c0700
7e0e00
3f1e00
3f1c00
1fbc00
0ff800
0ff000
07f000
07e000
03e000
03e000
03e000
03e000
03e000
03e000
03e000
ENDCHAR
STARTCHAR Z
ENCODING 90
SWIDTH 675 0
DWIDTH 16 0
BBX 13 17 1 0
BITMAP
fff8
fff8
fff8
01f8
03f0
03f0
07e0
0fc0
1fc0
1f80
3f00
7e00
7e00
fc00
fff8
fff8
fff8
ENDCHAR
STARTCHAR bracketleft
ENCODING 91
SWIDTH 386 0
DWIDTH 9 0
BBX 6 22 2 -4
BITMAP
fc
fc
fc
f0
f0
f0
f0
f0
f0
f0
f0
f0
f0
f0
f0
f0
f0
f0
f0
fc
fc
fc
ENDCHAR
STARTCHAR backslash
ENCODING 92
SWIDTH 596 0
DWIDTH 14 0
BBX 14 22 0 -4
BITMAP
f000
7000
7800
3800
3800
1c00
1c00
0e00
0e00
0700
0700
0380
0380
01c0
01c0
01e0
00e0
00f0
0070
0078
0038
003c
ENDCHAR
STARTCHAR bracketright
ENCODING 93
SWIDTH 386 0
DWIDTH 9 0
BBX 6 22 1 -4
BITMAP
fc
fc
fc
3c
3c
3c
3c
3c
3c
3c
3c
3c
3c
3c
3c
3c
3c
3c
3c
fc
fc
fc
ENDCHAR
STARTCHAR asciicircum
ENCODING 94
SWIDTH 687 0
DWIDTH 16 0
BBX 14 14 1 3
BITMAP
0100
0300
0300
0780
0780
0fc0
0fc0
1ce0
1ce0
3870
3870
7038
7038
e01c
ENDCHAR
STARTCHAR underscore
ENCODING 95
SWIDTH 500 0
DWIDTH 12 0
BBX 11 3 1 -3
BITMAP
ffe0
ffe0
ffe0
ENDCHAR
STARTCHAR grave
ENCODING 96
SWIDTH 675 0
DWIDTH 16 0
BBX 6 3 4 15
BITMAP
f0
38
1c
ENDCHAR
STARTCHAR a
ENCODING 97
SWIDTH 623 0
DWIDTH 15 0
BBX 13 13 1 0
BITMAP
3f80
7fe0
7ff0
41f0
01f0
3ff0
7ff0
fff0
f9f0
f9f0
fff8
7ff8
3cf8
ENDCHAR
STARTCHAR b
ENCODING 98
SWIDTH 696 0
DWIDTH 17 0
BBX 14 18 2 0
BITMAP
f800
f800
f800
f800
f800
f9e0
fbf8
fff8
fcfc
f87c
f87c
f87c
f87c
f87c
fcf8
fff8
fff0
f3e0
ENDCHAR
STARTCHAR c
ENCODING 99
SWIDTH 545 0
DWIDTH 13 0
BBX 12 13 1 0
BITMAP
0fe0
3ff0
7ff0
7e10
fc00
f800
f800
f800
fc00
7e10
7ff0
3ff0
0ff0
ENDCHAR
STARTCHAR d
ENCODING 100
SWIDTH 696 0
DWIDTH 17 0
BBX 14 18 1 0
BITMAP
007c
007c
007c
007c
007c
1e7c
3ffc
7ffc
fcfc
f87c
f87c
f87c
f87c
f87c
fcfc
7ffc
7f7c
1e7c
ENDCHAR
STARTCHAR e
ENCODING 101
SWIDTH 614 0
DWIDTH 15 0
BBX 13 13 1 0
BITMAP
0fc0
3fe0
7ff0
78f0
f8f8
fff8
fff8
fff8
f800
7c08
7ff8
3ff8
0ff0
ENDCHAR
STARTCHAR f
ENCODING 102
SWIDTH 461 0
DWIDTH 11 0
BBX 11 18 0 0
BITMAP
0fe0
1fe0
3fe0
3e00
3e00
ffc0
ffc0
ffc0
3e00
3e00
3e00
3e00
3e00
3e00
3e00
3e00
3e00
3e00
ENDCHAR
STARTCHAR g
ENCODING 103
SWIDTH 696 0
DWIDTH 17 0
BBX 14 18 1 -5
BITMAP
1f3c
3ffc
7ffc
7cfc
f87c
f87c
f87c
f87c
f87c
fcfc
7ffc
7f7c
1e7c
007c
20fc
7ff8
7ff0
1fc0
ENDCHAR
STARTCHAR h
ENCODING 104
SWIDTH 693 0
DWIDTH 17 0
BBX 13 18 2 0
BITMAP
f800
f800
f800
f800
f800
f9e0
fbf0
fff8
fff8
fcf8
f8f8
f8f8
f8f8
f8f8
f8f8
f8f8
f8f8
f8f8
ENDCHAR
STARTCHAR i
ENCODING 105
SWIDTH 361 0
DWIDTH 9 0
BBX 5 18 2 0
BITMAP
f8
f8
f8
00
00
f8
f8
f8
f8
f8
f8
f8
f8
f8
f8
f8
f8
f8
ENDCHAR
STARTCHAR j
ENCODING 106
SWIDTH 361 0
DWIDTH 9 0
BBX 9 23 -1 -5
BITMAP
0f80
0f80
0f80
0000
0000
0f80
0f80
0f80
0f80
0f80
0f80
0f80
0f80
0f80
0f80
0f80
0f80
0f80
0f80
0f80
ff80
ff00
fe00
ENDCHAR
STARTCHAR k
ENCODING 107
SWIDTH 681 0
DWIDTH 16 0
BBX 14 18 2 0
BITMAP
f800
f800
f800
f800
f800
f878
f8f0
f8e0
f9c0
fbc0
fbc0
ffc0
ffe0
fbf0
fbf0
f9f8
f8f8
f8fc
ENDCHAR
STARTCHAR l
ENCODING 108
SWIDTH 361 0
DWIDTH 9 0
BBX 5 18 2 0
BITMAP
f8
f8
f8
f8
f8
f8
f8
f8
f8
f8
f8
f8
f8
f8
f8
f8
f8
f8
ENDCHAR
STARTCHAR m
ENCODING 109
SWIDTH 1006 0
DWIDTH 24 0
BBX 21 13 2 0
BITMAP
fbe1f0
f7f3f8
fffff8
fffff8
fcfcf8
f8f8f8
f8f8f8
f8f8f8
f8f8f8
f8f8f8
f8f8f8
f8f8f8
f8f8f8
ENDCHAR
STARTCHAR n
ENCODING 110
SWIDTH 693 0
DWIDTH 17 0
BBX 13 13 2 0
BITMAP
f9e0
fbf0
fff8
fff8
fcf8
f8f8
f8f8
f8f8
f8f8
f8f8
f8f8
f8f8
f8f8
ENDCHAR
STARTCHAR o
ENCODING 111
SWIDTH 675 0
DWIDTH 16 0
BBX 14 13 1 0
BITMAP
0fc0
3ff0
7ff8
7cf8
f87c
f87c
f87c
f87c
f87c
7cf8
7ff8
3ff0
0fc0
ENDCHAR
STARTCHAR p
ENCODING 112
SWIDTH 696 0
DWIDTH 17 0
BBX 14 18 2 -5
BITMAP
f9e0
fbf8
fff8
fcfc
f87c
f87c
f87c
f87c
f87c
fcfc
fff8
fff0
f9e0
f800
f800
f800
f800
f800
ENDCHAR
STARTCHAR q
ENCODING 113
SWIDTH 696 0
DWIDTH 17 0
BBX 14 18 1 -5
BITMAP
1f3c
3ffc
7ffc
7cfc
f87c
f87c
f87c
f87c
f87c
fcfc
7ffc
7f7c
1e7c
007c
007c
007c
007c
007c
ENDCHAR
STARTCHAR r
ENCODING 114
SWIDTH 500 0
DWIDTH 12 0
BBX 10 13 2 0
BITMAP
f9c0
fbc0
ffc0
ffc0
fc00
f800
f800
f800
f800
f800
f800
f800
f800
ENDCHAR
STARTCHAR s
ENCODING 115
SWIDTH 622 0
DWIDTH 15 0
BBX 12 13 2 0
BITMAP
3fc0
7fe0
ffe0
f820
f800
ff00
3fc0
0ff0
01f0
c1f0
fff0
ffe0
7f80
ENDCHAR
STARTCHAR t
ENCODING 116
SWIDTH 436 0
DWIDTH 10 0
BBX 9 16 1 0
BITMAP
3c00
7c00
7c00
ff80
ff80
ff80
7c00
7c00
7c00
7c00
7c00
7c00
7c00
7f80
3f80
1f80
ENDCHAR
STARTCHAR u
ENCODING 117
SWIDTH 693 0
DWIDTH 17 0
BBX 13 13 2 0
BITMAP
f8f8
f8f8
f8f8
f8f8
f8f8
f8f8
f8f8
f8f8
f8f8
f9f8
fff8
7ef8
3cf8
ENDCHAR
STARTCHAR v
ENCODING 118
SWIDTH 663 0
DWIDTH 16 0
BBX 15 13 0 0
BITMAP
f80e
fc1c
7c1c
7e3c
3e38
3e38
3f78
1f70
1ff0
0fe0
0fe0
0fe0
07c0
ENDCHAR
STARTCHAR w
ENCODING 119
SWIDTH 885 0
DWIDTH 21 0
BBX 20 13 1 0
BITMAP
f0f870
f8f870
78f8e0
79f8e0
79fce0
7dfdc0
3dfdc0
3f9dc0
3f9fc0
3f9f80
1f1f80
1f0f80
1f0f80
ENDCHAR
STARTCHAR x
ENCODING 120
SWIDTH 568 0
DWIDTH 14 0
BBX 13 13 0 0
BITMAP
fc78
7cf0
3ee0
3fe0
1fc0
1f80
0f80
0fc0
1fc0
3fe0
3bf0
79f0
f0f8
ENDCHAR
STARTCHAR y
ENCODING 121
SWIDTH 645 0
DWIDTH 15 0
BBX 15 18 0 -5
BITMAP
f81e
fc1c
7c3c
7e38
3e38
3e70
3f70
1fe0
1fe0
0fe0
0fc0
0fc0
0780
0780
0f00
0f00
1e00
3e00
ENDCHAR
STARTCHAR z
ENCODING 122
SWIDTH 608 0
DWIDTH 15 0
BBX 12 13 1 0
BITMAP
fff0
fff0
fff0
07f0
0fe0
1fc0
1f80
3f00
7f00
fe00
fff0
fff0
fff0
ENDCHAR
STARTCHAR braceleft
ENCODING 123
SWIDTH 386 0
DWIDTH 9 0
BBX 7 22 1 -4
BITMAP
1e
3e
7e
7c
7c
7c
7c
7c
7c
f8
f0
f0
78
7c
7c
7c
7c
7c
7c
7e
3e
1e
ENDCHAR
STARTCHAR bar
ENCODING 124
SWIDTH 265 0
DWIDTH 6 0
BBX 3 22 2 -4
BITMAP
e0
e0
e0
e0
e0
e0
e0
e0
e0
e0
e0
e0
e0
e0
e0
e0
e0
e0
e0
e0
e0
e0
ENDCHAR
STARTCHAR braceright
ENCODING 125
SWIDTH 386 0
DWIDTH 9 0
BBX 7 22 1 -4
BITMAP
f0
f8
fc
7c
7c
7c
7c
7c
7c
3e
1e
1e
3c
7c
7c
7c
7c
7c
7c
fc
f8
f0
ENDCHAR
STARTCHAR asciitilde
ENCODING 126
SWIDTH 687 0
DWIDTH 16 0
BBX 14 6 1 4
BITMAP
3c1c
7e1c
ff9c
e7fc
e1f8
e0f0
ENDCHAR
STARTCHAR nobreakspace
ENCODING 160
SWIDTH 343 0
DWIDTH 8 0
BBX 1 1 0 0
BITMAP
00
ENDCHAR
STARTCHAR Aogonek
ENCODING 161
SWIDTH 773 0
DWIDTH 19 0
BBX 18 20 0 -3
BITMAP
03f000
03f000
03f800
07f800
07f800
07fc00
0e7c00
0e7e00
1e3e00
1c3e00
1fff00
3fff00
3fff80
780f80
700f80
7007c0
e007c0
01c000
038000
01e000
ENDCHAR
STARTCHAR breve
ENCODING 162
SWIDTH 675 0
DWIDTH 16 0
BBX 9 3 4 15
BITMAP
e380
7f00
3e00
ENDCHAR
STARTCHAR Lstroke
ENCODING 163
SWIDTH 620 0
DWIDTH 15 0
BBX 15 17 0 0
BITMAP
3e00
3e00
3e00
3e00
3e80
3f80
3f80
3f00
7e00
fe00
fe00
be00
3e00
3e00
3ffe
3ffe
3ffe
ENDCHAR
STARTCHAR currency
ENCODING 164
SWIDTH 687 0
DWIDTH 16 0
BBX 16 17 0 0
BITMAP
6006
e007
f00f
7bde
3ffc
1ff8
1e78
1c38
1c38
1c38
1e78
1ff8
3ffc
7bde
f00f
e007
4002
ENDCHAR
STARTCHAR Lcaron
ENCODING 165
SWIDTH 620 0
DWIDTH 15 0
BBX 13 19 2 0
BITMAP
03e0
03e0
fbe0
fbe0
fbe0
f8e0
fbc0
fb00
f800
f800
f800
f800
f800
f800
f800
f800
fff8
fff8
fff8
ENDCHAR
STARTCHAR Sacute
ENCODING 166
SWIDTH 594 0
DWIDTH 14 0
BBX 13 21 1 0
BITMAP
01e0
0380
0700
0000
1ff0
7ff0
7ff0
f830
f800
fe00
ff00
7fc0
3ff0
1ff0
07f8
01f8
00f8
c1f8
fff0
ffe0
ff80
ENDCHAR
STARTCHAR section
ENCODING 167
SWIDTH 693 0
DWIDTH 16 0
BBX 12 22 2 -5
BITMAP
3fe0
7fe0
ffe0
f020
f800
ff00
7fc0
3fe0
7ff0
eff0
f1f0
fc70
ff70
7fe0
7fc0
1fe0
07f0
01f0
c1f0
fff0
ffe0
ff80
ENDCHAR
STARTCHAR diaeresis
ENCODING 168
SWIDTH 675 0
DWIDTH 16 0
BBX 8 3 4 14
BITMAP
e7
e7
e7
ENDCHAR
STARTCHAR Scaron
ENCODING 169
SWIDTH 594 0
DWIDTH 14 0
BBX 13 21 1 0
BITMAP
38e0
1fc0
0f80
0000
1ff0
7ff0
7ff0
f830
f800
fe00
ff00
7fc0
3ff0
1ff0
07f8
01f8
00f8
c1f8
fff0
ffe0
ff80
ENDCHAR
STARTCHAR Scedilla
ENCODING 170
SWIDTH 594 0
DWIDTH 14 0
BBX 13 22 1 -5
BITMAP
1ff0
7ff0
7ff0
f830
f800
fe00
ff00
7fc0
3ff0
1ff0
07f8
01f8
00f8
c1f8
fff0
ffe0
ff80
0300
0600
0380
0f80
0f00
ENDCHAR
STARTCHAR Tcaron
ENCODING 171
SWIDTH 735 0
DWIDTH 18 0
BBX 17 21 0 0
BITMAP
0e3800
07f000
03e000
000000
ffff80
ffff80
ffff80
03e000
03e000
03e000
03e000
03e000
03e000
03e000
03e000
03e000
03e000
03e000
03e000
03e000
03e000
ENDCHAR
STARTCHAR Zacute
ENCODING 172
SWIDTH 675 0
DWIDTH 16 0
BBX 13 21 1 0
BITMAP
01e0
0380
0700
0000
fff8
fff8
fff8
01f8
03f0
03f0
07e0
0fc0
1fc0
1f80
3f00
7e00
7e00
fc00
fff8
fff8
fff8
ENDCHAR
STARTCHAR hyphen
ENCODING 173
SWIDTH 289 0
DWIDTH 7 0
BBX 5 3 1 6
BITMAP
f8
f8
f8
ENDCHAR
STARTCHAR Zcaron
ENCODING 174
SWIDTH 675 0
DWIDTH 16 0
BBX 13 21 1 0
BITMAP
38e0
1fc0
0f80
0000
fff8
fff8
fff8
01f8
03f0
03f0
07e0
0fc0
1fc0
1f80
3f00
7e00
7e00
fc00
fff8
fff8
fff8
ENDCHAR
STARTCHAR Zabovedot
ENCODING 175
SWIDTH 675 0
DWIDTH 16 0
BBX 13 21 1 0
BITMAP
0700
0700
0700
0000
fff8
fff8
fff8
01f8
03f0
03f0
07e0
0fc0
1fc0
1f80
3f00
7e00
7e00
fc00
fff8
fff8
fff8
ENDCHAR
STARTCHAR degree
ENCODING 176
SWIDTH 241 0
DWIDTH 6 0
BBX 4 4 1 13
BITMAP
60
90
90
60
ENDCHAR
STARTCHAR aogonek
ENCODING 177
SWIDTH 623 0
DWIDTH 15 0
BBX 13 16 1 -3
BITMAP
3f80
7fe0
7ff0
41f0
01f0
3ff0
7ff0
fff0
f9f0
f9f0
fff8
7ff8
3cf8
0700
0e00
0780
ENDCHAR
STARTCHAR ogonek
ENCODING 178
SWIDTH 675 0
DWIDTH 16 0
BBX 5 3 6 -4
BITMAP
70
e0
78
ENDCHAR
STARTCHAR lstroke
ENCODING 179
SWIDTH 361 0
DWIDTH 9 0
BBX 9 18 0 0
BITMAP
3e00
3e00
3e00
3e00
3e00
3e80
3f80
3f80
3f00
fe00
fe00
fe00
be00
3e00
3e00
3e00
3e00
3e00
ENDCHAR
STARTCHAR acute
ENCODING 180
SWIDTH 675 0
DWIDTH 16 0
BBX 6 3 6 15
BITMAP
3c
70
e0
ENDCHAR
STARTCHAR lcaron
ENCODING 181
SWIDTH 625 0
DWIDTH 15 0
BBX 11 20 2 0
BITMAP
03e0
03e0
fbe0
fbe0
fbe0
f8e0
fbc0
fb00
f800
f800
f800
f800
f800
f800
f800
f800
f800
f800
f800
f800
ENDCHAR
STARTCHAR sacute
ENCODING 182
SWIDTH 622 0
DWIDTH 15 0
BBX 12 17 2 0
BITMAP
03c0
0700
0e00
0000
3fc0
7fe0
ffe0
f820
f800
ff00
3fc0
0ff0
01f0
c1f0
fff0
ffe0
7f80
ENDCHAR
STARTCHAR caron
ENCODING 183
SWIDTH 675 0
DWIDTH 16 0
BBX 9 3 4 15
BITMAP
e380
7f00
3e00
ENDCHAR
STARTCHAR cedilla
ENCODING 184
SWIDTH 675 0
DWIDTH 16 0
BBX 5 5 6 -5
BITMAP
30
60
38
f8
f0
ENDCHAR
STARTCHAR scaron
ENCODING 185
SWIDTH 622 0
DWIDTH 15 0
BBX 12 17 2 0
BITMAP
71c0
3f80
1f00
0000
3fc0
7fe0
ffe0
f820
f800
ff00
3fc0
0ff0
01f0
c1f0
fff0
ffe0
7f80
ENDCHAR
STARTCHAR scedilla
ENCODING 186
SWIDTH 622 0
DWIDTH 15 0
BBX 12 18 2 -5
BITMAP
3fc0
7fe0
ffe0
f820
f800
ff00
3fc0
0ff0
01f0
c1f0
fff0
ffe0
7f80
0600
0c00
0700
1f00
1e00
ENDCHAR
STARTCHAR tcaron
ENCODING 187
SWIDTH 541 0
DWIDTH 13 0
BBX 12 22 1 0
BITMAP
01f0
01f0
01f0
01f0
01f0
0070
3de0
7d80
7c00
ff80
ff80
ff80
7c00
7c00
7c00
7c00
7c00
7c00
7c00
7f80
3f80
1f80
ENDCHAR
STARTCHAR zacute
ENCODING 188
SWIDTH 608 0
DWIDTH 15 0
BBX 12 17 1 0
BITMAP
03c0
0700
0e00
0000
fff0
fff0
fff0
07f0
0fe0
1fc0
1f80
3f00
7f00
fe00
fff0
fff0
fff0
ENDCHAR
STARTCHAR doubleacute
ENCODING 189
SWIDTH 675 0
DWIDTH 16 0
BBX 9 3 5 15
BITMAP
3b80
7600
ec00
ENDCHAR
STARTCHAR zcaron
ENCODING 190
SWIDTH 608 0
DWIDTH 15 0
BBX 12 17 1 0
BITMAP
71c0
3f80
1f00
0000
fff0
fff0
fff0
07f0
0fe0
1fc0
1f80
3f00
7f00
fe00
fff0
fff0
fff0
ENDCHAR
STARTCHAR zabovedot
ENCODING 191
SWIDTH 608 0
DWIDTH 15 0
BBX 12 17 1 0
BITMAP
0e00
0e00
0e00
0000
fff0
fff0
fff0
07f0
0fe0
1fc0
1f80
3f00
7f00
fe00
fff0
fff0
fff0
ENDCHAR
STARTCHAR Racute
ENCODING 192
SWIDTH 734 0
DWIDTH 18 0
BBX 16 21 2 0
BITMAP
01e0
0380
0700
0000
ffc0
fff0
fff8
f8f8
f8f8
f8f8
f9f8
fff0
ffe0
ffe0
fbf0
f9f0
f9f8
f8f8
f8fc
f87e
f87f
ENDCHAR
STARTCHAR Aacute
ENCODING 193
SWIDTH 773 0
DWIDTH 19 0
BBX 18 21 0 0
BITMAP
007800
00e000
01c000
000000
03f000
03f000
03f800
07f800
07f800
07fc00
0e7c00
0e7e00
1e3e00
1c3e00
1fff00
3fff00
3fff80
780f80
700f80
7007c0
e007c0
ENDCHAR
STARTCHAR Acircumflex
ENCODING 194
SWIDTH 773 0
DWIDTH 19 0
BBX 18 21 0 0
BITMAP
01f000
03f800
071c00
000000
03f000
03f000
03f800
07f800
07f800
07fc00
0e7c00
0e7e00
1e3e00
1c3e00
1fff00
3fff00
3fff80
780f80
700f80
7007c0
e007c0
ENDCHAR
STARTCHAR Abreve
ENCODING 195
SWIDTH 773 0
DWIDTH 19 0
BBX 18 21 0 0
BITMAP
071c00
03f800
01f000
000000
03f000
03f000
03f800
07f800
07f800
07fc00
0e7c00
0e7e00
1e3e00
1c3e00
1fff00
3fff00
3fff80
780f80
700f80
7007c0
e007c0
ENDCHAR
STARTCHAR Adiaeresis
ENCODING 196
SWIDTH 773 0
DWIDTH 19 0
BBX 18 21 0 0
BITMAP
073800
073800
073800
000000
03f000
03f000
03f800
07f800
07f800
07fc00
0e7c00
0e7e00
1e3e00
1c3e00
1fff00
3fff00
3fff80
780f80
700f80
7007c0
e007c0
ENDCHAR
STARTCHAR Lacute
ENCODING 197
SWIDTH 620 0
DWIDTH 15 0
BBX 13 21 2 0
BITMAP
1e00
3800
7000
0000
f800
f800
f800
f800
f800
f800
f800
f800
f800
f800
f800
f800
f800
f800
fff8
fff8
fff8
ENDCHAR
STARTCHAR Cacute
ENCODING 198
SWIDTH 726 0
DWIDTH 17 0
BBX 16 21 1 0
BITMAP
0078
00e0
01c0
0000
03fe
0fff
3fff
7f03
7c00
fc00
f800
f800
f800
f800
f800
fc00
7e00
7f01
3fff
0fff
03fc
ENDCHAR
STARTCHAR Ccedilla
ENCODING 199
SWIDTH 726 0
DWIDTH 17 0
BBX 16 22 1 -5
BITMAP
03fe
0fff
3fff
7f03
7c00
fc00
f800
f800
f800
f800
f800
fc00
7e00
7f01
3fff
0fff
03fc
00c0
0180
00e0
03e0
03c0
ENDCHAR
STARTCHAR Ccaron
ENCODING 200
SWIDTH 726 0
DWIDTH 17 0
BBX 16 21 1 0
BITMAP
0e38
07f0
03e0
0000
03fe
0fff
3fff
7f03
7c00
fc00
f800
f800
f800
f800
f800
fc00
7e00
7f01
3fff
0fff
03fc
ENDCHAR
STARTCHAR Eacute
ENCODING 201
SWIDTH 645 0
DWIDTH 15 0
BBX 13 21 2 0
BITMAP
03c0
0700
0e00
0000
fff0
fff0
fff0
f800
f800
f800
f800
ffe0
ffe0
ffe0
f800
f800
f800
f800
fff8
fff8
fff8
ENDCHAR
STARTCHAR Eogonek
ENCODING 202
SWIDTH 645 0
DWIDTH 15 0
BBX 13 20 2 -3
BITMAP
fff0
fff0
fff0
f800
f800
f800
f800
ffe0
ffe0
ffe0
f800
f800
f800
f800
fff8
fff8
fff8
0700
0e00
0780
ENDCHAR
STARTCHAR Ediaeresis
ENCODING 203
SWIDTH 645 0
DWIDTH 15 0
BBX 13 21 2 0
BITMAP
39c0
39c0
39c0
0000
fff0
fff0
fff0
f800
f800
f800
f800
ffe0
ffe0
ffe0
f800
f800
f800
f800
fff8
fff8
fff8
ENDCHAR
STARTCHAR Ecaron
ENCODING 204
SWIDTH 645 0
DWIDTH 15 0
BBX 13 21 2 0
BITMAP
71c0
3f80
1f00
0000
fff0
fff0
fff0
f800
f800
f800
f800
ffe0
ffe0
ffe0
f800
f800
f800
f800
fff8
fff8
fff8
ENDCHAR
STARTCHAR Iacute
ENCODING 205
SWIDTH 361 0
DWIDTH 9 0
BBX 7 21 2 0
BITMAP
1e
38
70
00
f8
f8
f8
f8
f8
f8
f8
f8
f8
f8
f8
f8
f8
f8
f8
f8
f8
ENDCHAR
STARTCHAR Icircumflex
ENCODING 206
SWIDTH 361 0
DWIDTH 9 0
BBX 9 21 4 0
BITMAP
3e00
7f00
e380
0000
3e00
3e00
3e00
3e00
3e00
3e00
3e00
3e00
3e00
3e00
3e00
3e00
3e00
3e00
3e00
3e00
3e00
ENDCHAR
STARTCHAR Dcaron
ENCODING 207
SWIDTH 819 0
DWIDTH 20 0
BBX 17 21 2 0
BITMAP
1c7000
0fe000
07c000
000000
fff000
fffc00
fffe00
f87f00
f81f00
f81f80
f80f80
f80f80
f80f80
f80f80
f80f80
f80f80
f81f00
f83f00
fffe00
fffc00
fff000
ENDCHAR
STARTCHAR Dstroke
ENCODING 208
SWIDTH 819 0
DWIDTH 20 0
BBX 19 17 0 0
BITMAP
3ffc00
3fff00
3fff80
3e1fc0
3e07c0
3e07e0
3e03e0
ffc3e0
ffc3e0
ffc3e0
3e03e0
3e03e0
3e07c0
3e0fc0
3fff80
3fff00
3ffc00
ENDCHAR
STARTCHAR Nacute
ENCODING 209
SWIDTH 783 0
DWIDTH 19 0
BBX 15 21 2 0
BITMAP
00f0
01c0
0380
0000
f00e
f80e
fc0e
fe0e
ff0e
ff0e
ff8e
efce
efee
e7ee
e3fe
e1fe
e1fe
e0fe
e07e
e03e
e01e
ENDCHAR
STARTCHAR Ncaron
ENCODING 210
SWIDTH 783 0
DWIDTH 19 0
BBX 15 21 2 0
BITMAP
1c70
0fe0
07c0
0000
f00e
f80e
fc0e
fe0e
ff0e
ff0e
ff8e
efce
efee
e7ee
e3fe
e1fe
e1fe
e0fe
e07e
e03e
e01e
ENDCHAR
STARTCHAR Oacute
ENCODING 211
SWIDTH 855 0
DWIDTH 21 0
BBX 19 21 1 0
BITMAP
003c00
007000
00e000
000000
03f800
0ffe00
3fff80
7e0fc0
7c07c0
fc07e0
f803e0
f803e0
f803e0
f803e0
f803e0
fc07e0
7c07c0
7e0fc0
3fff80
0ffe00
03f800
ENDCHAR
STARTCHAR Ocircumflex
ENCODING 212
SWIDTH 855 0
DWIDTH 21 0
BBX 19 21 1 0
BITMAP
01f000
03f800
071c00
000000
03f800
0ffe00
3fff80
7e0fc0
7c07c0
fc07e0
f803e0
f803e0
f803e0
f803e0
f803e0
fc07e0
7c07c0
7e0fc0
3fff80
0ffe00
03f800
ENDCHAR
STARTCHAR Odoubleacute
ENCODING 213
SWIDTH 855 0
DWIDTH 21 0
BBX 19 21 1 0
BITMAP
007700
00ec00
01d800
000000
03f800
0ffe00
3fff80
7e0fc0
7c07c0
fc07e0
f803e0
f803e0
f803e0
f803e0
f803e0
fc07e0
7c07c0
7e0fc0
3fff80
0ffe00
03f800
ENDCHAR
STARTCHAR Odiaeresis
ENCODING 214
SWIDTH 855 0
DWIDTH 21 0
BBX 19 21 1 0
BITMAP
039c00
039c00
039c00
000000
03f800
0ffe00
3fff80
7e0fc0
7c07c0
fc07e0
f803e0
f803e0
f803e0
f803e0
f803e0
fc07e0
7c07c0
7e0fc0
3fff80
0ffe00
03f800
ENDCHAR
STARTCHAR multiply
ENCODING 215
SWIDTH 687 0
DWIDTH 16 0
BBX 14 14 1 0
BITMAP
6018
f03c
f87c
7cf8
3ff0
1fe0
0fc0
0fc0
1fe0
3ff0
7cf8
f87c
f03c
6018
ENDCHAR
STARTCHAR Rcaron
ENCODING 216
SWIDTH 734 0
DWIDTH 18 0
BBX 16 21 2 0
BITMAP
38e0
1fc0
0f80
0000
ffc0
fff0
fff8
f8f8
f8f8
f8f8
f9f8
fff0
ffe0
ffe0
fbf0
f9f0
f9f8
f8f8
f8fc
f87e
f87f
ENDCHAR
STARTCHAR Uring
ENCODING 217
SWIDTH 783 0
DWIDTH 19 0
BBX 15 22 2 0
BITMAP
0180
0240
0240
0180
0000
f83e
f83e
f83e
f83e
f83e
f83e
f83e
f83e
f83e
f83e
f83e
f83e
f83e
7c7c
7ffc
3ff8
0fe0
ENDCHAR
STARTCHAR Uacute
ENCODING 218
SWIDTH 783 0
DWIDTH 19 0
BBX 15 21 2 0
BITMAP
00f0
01c0
0380
0000
f83e
f83e
f83e
f83e
f83e
f83e
f83e
f83e
f83e
f83e
f83e
f83e
f83e
7c7c
7ffc
3ff8
0fe0
ENDCHAR
STARTCHAR Udoubleacute
ENCODING 219
SWIDTH 783 0
DWIDTH 19 0
BBX 15 21 2 0
BITMAP
01dc
03b0
0760
0000
f83e
f83e
f83e
f83e
f83e
f83e
f83e
f83e
f83e
f83e
f83e
f83e
f83e
7c7c
7ffc
3ff8
0fe0
ENDCHAR
STARTCHAR Udiaeresis
ENCODING 220
SWIDTH 783 0
DWIDTH 19 0
BBX 15 21 2 0
BITMAP
0e70
0e70
0e70
0000
f83e
f83e
f83e
f83e
f83e
f83e
f83e
f83e
f83e
f83e
f83e
f83e
f83e
7c7c
7ffc
3ff8
0fe0
ENDCHAR
STARTCHAR Yacute
ENCODING 221
SWIDTH 738 0
DWIDTH 18 0
BBX 17 21 0 0
BITMAP
007800
00e000
01c000
000000
fc0780
7c0700
7e0e00
3f1e00
3f1c00
1fbc00
0ff800
0ff000
07f000
07e000
03e000
03e000
03e000
03e000
03e000
03e000
03e000
ENDCHAR
STARTCHAR Tcedilla
ENCODING 222
SWIDTH 735 0
DWIDTH 18 0
BBX 17 22 0 -5
BITMAP
ffff80
ffff80
ffff80
03e000
03e000
03e000
03e000
03e000
03e000
03e000
03e000
03e000
03e000
03e000
03e000
03e000
03e000
00c000
018000
00e000
03e000
03c000
ENDCHAR
STARTCHAR ssharp
ENCODING 223
SWIDTH 724 0
DWIDTH 17 0
BBX 15 18 2 0
BITMAP
1fc0
3fe0
7ff0
f8f0
f8e0
f8e0
f9c0
f9c0
fbf0
fbf8
f9fc
f9fe
f87e
f83e
f81e
f9fe
f9fc
f9f8
ENDCHAR
STARTCHAR racute
ENCODING 224
SWIDTH 500 0
DWIDTH 12 0
BBX 10 17 2 0
BITMAP
0780
0e00
1c00
0000
f9c0
fbc0
ffc0
ffc0
fc00
f800
f800
f800
f800
f800
f800
f800
f800
ENDCHAR
STARTCHAR aacute
ENCODING 225
SWIDTH 623 0
DWIDTH 15 0
BBX 13 17 1 0
BITMAP
01e0
0380
0700
0000
3f80
7fe0
7ff0
41f0
01f0
3ff0
7ff0
fff0
f9f0
f9f0
fff8
7ff8
3cf8
ENDCHAR
STARTCHAR acircumflex
ENCODING 226
SWIDTH 623 0
DWIDTH 15 0
BBX 13 17 1 0
BITMAP
0f80
1fc0
38e0
0000
3f80
7fe0
7ff0
41f0
01f0
3ff0
7ff0
fff0
f9f0
f9f0
fff8
7ff8
3cf8
ENDCHAR
STARTCHAR abreve
ENCODING 227
SWIDTH 623 0
DWIDTH 15 0
BBX 13 17 1 0
BITMAP
38e0
1fc0
0f80
0000
3f80
7fe0
7ff0
41f0
01f0
3ff0
7ff0
fff0
f9f0
f9f0
fff8
7ff8
3cf8
ENDCHAR
STARTCHAR adiaeresis
ENCODING 228
SWIDTH 623 0
DWIDTH 15 0
BBX 13 17 1 0
BITMAP
1ce0
1ce0
1ce0
0000
3f80
7fe0
7ff0
41f0
01f0
3ff0
7ff0
fff0
f9f0
f9f0
fff8
7ff8
3cf8
ENDCHAR
STARTCHAR lacute
ENCODING 229
SWIDTH 361 0
DWIDTH 9 0
BBX 7 22 2 0
BITMAP
1e
38
70
00
f8
f8
f8
f8
f8
f8
f8
f8
f8
f8
f8
f8
f8
f8
f8
f8
f8
f8
ENDCHAR
STARTCHAR cacute
ENCODING 230
SWIDTH 545 0
DWIDTH 13 0
BBX 12 17 1 0
BITMAP
01e0
0380
0700
0000
0fe0
3ff0
7ff0
7e10
fc00
f800
f800
f800
fc00
7e10
7ff0
3ff0
0ff0
ENDCHAR
STARTCHAR ccedilla
ENCODING 231
SWIDTH 545 0
DWIDTH 13 0
BBX 12 18 1 -5
BITMAP
0fe0
3ff0
7ff0
7e10
fc00
f800
f800
f800
fc00
7e10
7ff0
3ff0
0ff0
0300
0600
0380
0f80
0f00
ENDCHAR
STARTCHAR ccaron
ENCODING 232
SWIDTH 545 0
DWIDTH 13 0
BBX 12 17 1 0
BITMAP
38e0
1fc0
0f80
0000
0fe0
3ff0
7ff0
7e10
fc00
f800
f800
f800
fc00
7e10
7ff0
3ff0
0ff0
ENDCHAR
STARTCHAR eacute
ENCODING 233
SWIDTH 614 0
DWIDTH 15 0
BBX 13 17 1 0
BITMAP
01e0
0380
0700
0000
0fc0
3fe0
7ff0
78f0
f8f8
fff8
fff8
fff8
f800
7c08
7ff8
3ff8
0ff0
ENDCHAR
STARTCHAR eogonek
ENCODING 234
SWIDTH 614 0
DWIDTH 15 0
BBX 13 16 1 -3
BITMAP
0fc0
3fe0
7ff0
78f0
f8f8
fff8
fff8
fff8
f800
7c08
7ff8
3ff8
0ff0
0700
0e00
0780
ENDCHAR
STARTCHAR ediaeresis
ENCODING 235
SWIDTH 614 0
DWIDTH 15 0
BBX 13 17 1 0
BITMAP
1ce0
1ce0
1ce0
0000
0fc0
3fe0
7ff0
78f0
f8f8
fff8
fff8
fff8
f800
7c08
7ff8
3ff8
0ff0
ENDCHAR
STARTCHAR ecaron
ENCODING 236
SWIDTH 614 0
DWIDTH 15 0
BBX 13 17 1 0
BITMAP
38e0
1fc0
0f80
0000
0fc0
3fe0
7ff0
78f0
f8f8
fff8
fff8
fff8
f800
7c08
7ff8
3ff8
0ff0
ENDCHAR
STARTCHAR iacute
ENCODING 237
SWIDTH 361 0
DWIDTH 9 0
BBX 6 17 2 0
BITMAP
3c
70
e0
00
f8
f8
f8
f8
f8
f8
f8
f8
f8
f8
f8
f8
f8
ENDCHAR
STARTCHAR icircumflex
ENCODING 238
SWIDTH 361 0
DWIDTH 9 0
BBX 9 17 4 0
BITMAP
3e00
7f00
e380
0000
3e00
3e00
3e00
3e00
3e00
3e00
3e00
3e00
3e00
3e00
3e00
3e00
3e00
ENDCHAR
STARTCHAR dcaron
ENCODING 239
SWIDTH 958 0
DWIDTH 23 0
BBX 20 20 1 0
BITMAP
0001f0
0001f0
007df0
007df0
007df0
007c70
007de0
1e7d80
3ffc00
7ffc00
fcfc00
f87c00
f87c00
f87c00
f87c00
f87c00
fcfc00
7ffc00
7f7c00
1e7c00
ENDCHAR
STARTCHAR dstroke
ENCODING 240
SWIDTH 916 0
DWIDTH 22 0
BBX 19 18 1 0
BITMAP
007c00
007c00
0fffe0
0fffe0
007c00
1e7c00
3ffc00
7ffc00
fcfc00
f87c00
f87c00
f87c00
f87c00
f87c00
fcfc00
7ffc00
7f7c00
1e7c00
ENDCHAR
STARTCHAR nacute
ENCODING 241
SWIDTH 693 0
DWIDTH 17 0
BBX 13 17 2 0
BITMAP
01e0
0380
0700
0000
f9e0
fbf0
fff8
fff8
fcf8
f8f8
f8f8
f8f8
f8f8
f8f8
f8f8
f8f8
f8f8
ENDCHAR
STARTCHAR ncaron
ENCODING 242
SWIDTH 693 0
DWIDTH 17 0
BBX 13 17 2 0
BITMAP
38e0
1fc0
0f80
0000
f9e0
fbf0
fff8
fff8
fcf8
f8f8
f8f8
f8f8
f8f8
f8f8
f8f8
f8f8
f8f8
ENDCHAR
STARTCHAR oacute
ENCODING 243
SWIDTH 675 0
DWIDTH 16 0
BBX 14 17 1 0
BITMAP
01e0
0380
0700
0000
0fc0
3ff0
7ff8
7cf8
f87c
f87c
f87c
f87c
f87c
7cf8
7ff8
3ff0
0fc0
ENDCHAR
STARTCHAR ocircumflex
ENCODING 244
SWIDTH 675 0
DWIDTH 16 0
BBX 14 17 1 0
BITMAP
07c0
0fe0
1c70
0000
0fc0
3ff0
7ff8
7cf8
f87c
f87c
f87c
f87c
f87c
7cf8
7ff8
3ff0
0fc0
ENDCHAR
STARTCHAR odoubleacute
ENCODING 245
SWIDTH 675 0
DWIDTH 16 0
BBX 14 17 1 0
BITMAP
03b8
0760
0ec0
0000
0fc0
3ff0
7ff8
7cf8
f87c
f87c
f87c
f87c
f87c
7cf8
7ff8
3ff0
0fc0
ENDCHAR
STARTCHAR odiaeresis
ENCODING 246
SWIDTH 675 0
DWIDTH 16 0
BBX 14 17 1 0
BITMAP
1ce0
1ce0
1ce0
0000
0fc0
3ff0
7ff8
7cf8
f87c
f87c
f87c
f87c
f87c
7cf8
7ff8
3ff0
0fc0
ENDCHAR
STARTCHAR division
ENCODING 247
SWIDTH 687 0
DWIDTH 16 0
BBX 14 14 1 0
BITMAP
0700
0700
0700
0000
0000
fffc
fffc
fffc
0000
0000
0000
0700
0700
0700
ENDCHAR
STARTCHAR rcaron
ENCODING 248
SWIDTH 500 0
DWIDTH 12 0
BBX 10 17 2 0
BITMAP
e380
7f00
3e00
0000
f9c0
fbc0
ffc0
ffc0
fc00
f800
f800
f800
f800
f800
f800
f800
f800
ENDCHAR
STARTCHAR uring
ENCODING 249
SWIDTH 693 0
DWIDTH 17 0
BBX 13 18 2 0
BITMAP
0300
0480
0480
0300
0000
f8f8
f8f8
f8f8
f8f8
f8f8
f8f8
f8f8
f8f8
f8f8
f9f8
fff8
7ef8
3cf8
ENDCHAR
STARTCHAR uacute
ENCODING 250
SWIDTH 693 0
DWIDTH 17 0
BBX 13 17 2 0
BITMAP
01e0
0380
0700
0000
f8f8
f8f8
f8f8
f8f8
f8f8
f8f8
f8f8
f8f8
f8f8
f9f8
fff8
7ef8
3cf8
ENDCHAR
STARTCHAR udoubleacute
ENCODING 251
SWIDTH 693 0
DWIDTH 17 0
BBX 13 17 2 0
BITMAP
03b8
0760
0ec0
0000
f8f8
f8f8
f8f8
f8f8
f8f8
f8f8
f8f8
f8f8
f8f8
f9f8
fff8
7ef8
3cf8
ENDCHAR
STARTCHAR udiaeresis
ENCODING 252
SWIDTH 693 0
DWIDTH 17 0
BBX 13 17 2 0
BITMAP
1ce0
1ce0
1ce0
0000
f8f8
f8f8
f8f8
f8f8
f8f8
f8f8
f8f8
f8f8
f8f8
f9f8
fff8
7ef8
3cf8
ENDCHAR
STARTCHAR yacute
ENCODING 253
SWIDTH 645 0
DWIDTH 15 0
BBX 15 22 0 -5
BITMAP
01e0
0380
0700
0000
f81e
fc1c
7c3c
7e38
3e38
3e70
3f70
1fe0
1fe0
0fe0
0fc0
0fc0
0780
0780
0f00
0f00
1e00
3e00
ENDCHAR
STARTCHAR tcedilla
ENCODING 254
SWIDTH 436 0
DWIDTH 10 0
BBX 9 21 1 -5
BITMAP
3c00
7c00
7c00
ff80
ff80
ff80
7c00
7c00
7c00
7c00
7c00
7c00
7c00
7f80
3f80
1f80
0c00
1800
0e00
3e00
3c00
ENDCHAR
STARTCHAR abovedot
ENCODING 255
SWIDTH 675 0
DWIDTH 16 0
BBX 3 3 7 15
BITMAP
e0
e0
e0
ENDCHAR
ENDFONT
